<svg xmlns="http://www.w3.org/2000/svg" width="20" height="18" viewBox="0 0 20 18">
    <path fill="#24B47E" fill-rule="evenodd" stroke="#24B47E" stroke-width=".5" d="M15.984 3.937c-2.855-2.793-7.483-2.793-10.338 0a7.066 7.066 0 0 0-2.101 4.29l1.35-.793a.438.438 0 0 1 .593.145.412.412 0 0 1-.14.575l-1.69.992a1 1 0 0 1-1.206-.148L1.125 7.701a.414.414 0 0 1 .004-.596.444.444 0 0 1 .616.004l.945.924a7.897 7.897 0 0 1 2.336-4.688c3.196-3.127 8.382-3.127 11.579 0a7.873 7.873 0 0 1 0 11.31c-3.197 3.127-8.383 3.127-11.58 0-.091-.19-.069-.358.068-.507.137-.149.321-.177.553-.085 2.855 2.793 7.483 2.793 10.338 0a7.051 7.051 0 0 0 0-10.126z"/>
</svg>
