<svg xmlns="http://www.w3.org/2000/svg" width="138" height="36" viewBox="0 0 138 36">
    <g fill="none" fill-rule="evenodd">
        <path fill="#32364E" d="M41.482 25.309c2.618 0 4.285-1.391 4.285-3.537v-.061c0-2.267-1.607-3.507-4.315-3.507h-5.326v7.105h5.356zm-9.017-10.491h9.284c2.619 0 4.672.786 6.012 2.116 1.1 1.15 1.725 2.721 1.725 4.565v.06c0 3.478-2.053 5.564-4.94 6.41l5.624 8.012h-4.344l-5.118-7.377h-4.582v7.377h-3.66V14.818z"/>
        <path fill="#32354E" d="M69.573 27.576l-3.601-8.465-3.57 8.465h7.17zm-5.238-12.91h3.392l9.165 21.315h-3.868l-2.112-5.11h-9.85l-2.142 5.11h-3.75l9.165-21.314zM86.505 18.204v14.391h4.106c4.375 0 7.23-2.993 7.23-7.135v-.06c0-4.143-2.855-7.196-7.23-7.196h-4.106zm-3.66-3.386h7.766c6.546 0 11.07 4.565 11.07 10.521v.06c0 5.956-4.524 10.582-11.07 10.582h-7.766V14.818zM108.109 35.981h3.66V14.818h-3.66zM137.33 14.818l-7.26 10.34 7.557 10.823h-4.314l-5.505-8.072-5.476 8.072h-4.195l7.528-10.763-7.23-10.4h4.314l5.178 7.679 5.207-7.68z"/>
        <path fill="#3ECF8E" d="M15.416 31.53c-.66 0-1.288-.321-1.68-.873L5.524 19.095H.168v-4.21h6.415c.666 0 1.29.324 1.68.872l6.71 9.447L25.215 1.439A2.071 2.071 0 0 1 27.112.178h12.8v4.21H28.467l-11.152 25.88a2.075 2.075 0 0 1-1.899 1.262"/>
    </g>
</svg>
